<svg xmlns="http://www.w3.org/2000/svg" xmlns:xlink="http://www.w3.org/1999/xlink" width="48" zoomAndPan="magnify" viewBox="0 0 36 36.000001" height="48" preserveAspectRatio="xMidYMid meet" version="1.0"><defs><g/><clipPath id="4f142c5234"><path d="M 3 0 L 35.511719 0 L 35.511719 35.027344 L 3 35.027344 Z M 3 0 " clip-rule="nonzero"/></clipPath><clipPath id="d215f7fbff"><rect x="0" width="33" y="0" height="36"/></clipPath></defs><g clip-path="url(#4f142c5234)"><g transform="matrix(1, 0, 0, 1, 3, 0.000000000000010582)"><g clip-path="url(#d215f7fbff)"><g fill="#ffffff" fill-opacity="1"><g transform="translate(0.989189, 31.533589)"><g><path d="M 4.9375 0.6875 C 4.363281 0.6875 3.753906 0.570312 3.109375 0.34375 C 2.460938 0.113281 1.910156 -0.28125 1.453125 -0.84375 C 0.992188 -1.414062 0.765625 -2.210938 0.765625 -3.234375 C 0.765625 -3.335938 0.765625 -3.453125 0.765625 -3.578125 C 0.765625 -3.703125 0.78125 -3.816406 0.8125 -3.921875 C 1.101562 -6.648438 1.554688 -9.925781 2.171875 -13.75 C 2.796875 -17.582031 3.691406 -21.738281 4.859375 -26.21875 C 4.585938 -26.832031 4.273438 -27.421875 3.921875 -27.984375 C 3.566406 -28.554688 3.390625 -29.046875 3.390625 -29.453125 C 3.390625 -29.722656 3.5 -29.910156 3.71875 -30.015625 C 3.9375 -30.117188 4.164062 -30.171875 4.40625 -30.171875 C 5.269531 -30.171875 6.144531 -29.957031 7.03125 -29.53125 C 7.925781 -29.101562 8.753906 -28.425781 9.515625 -27.5 C 10.285156 -26.582031 10.890625 -25.410156 11.328125 -23.984375 L 15.09375 -11.65625 L 15.171875 -11.65625 C 15.765625 -13.539062 16.316406 -15.304688 16.828125 -16.953125 C 17.335938 -18.597656 17.851562 -20.242188 18.375 -21.890625 C 18.90625 -23.535156 19.46875 -25.273438 20.0625 -27.109375 C 20.300781 -27.859375 20.609375 -28.394531 20.984375 -28.71875 C 21.367188 -29.039062 21.804688 -29.203125 22.296875 -29.203125 C 22.753906 -29.203125 23.304688 -29.054688 23.953125 -28.765625 C 24.972656 -28.328125 25.6875 -27.628906 26.09375 -26.671875 C 26.5 -25.722656 26.644531 -24.4375 26.53125 -22.8125 C 26.457031 -21.757812 26.421875 -20.222656 26.421875 -18.203125 C 26.421875 -16.722656 26.4375 -15.097656 26.46875 -13.328125 C 26.507812 -11.554688 26.578125 -9.796875 26.671875 -8.046875 C 26.773438 -6.296875 26.882812 -4.6875 27 -3.21875 C 27.125 -1.75 27.265625 -0.554688 27.421875 0.359375 C 27.097656 0.492188 26.679688 0.5625 26.171875 0.5625 C 25.335938 0.5625 24.515625 0.347656 23.703125 -0.078125 C 22.890625 -0.515625 22.421875 -1.257812 22.296875 -2.3125 C 22.097656 -3.84375 21.9375 -5.554688 21.8125 -7.453125 C 21.695312 -9.359375 21.640625 -11.21875 21.640625 -13.03125 C 21.640625 -14.320312 21.679688 -15.535156 21.765625 -16.671875 L 21.6875 -16.671875 L 16.75 -3.3125 C 16.632812 -3.019531 16.347656 -2.875 15.890625 -2.875 C 15.273438 -2.875 14.65625 -3.078125 14.03125 -3.484375 C 13.09375 -3.753906 12.539062 -4.1875 12.375 -4.78125 L 8.53125 -17.71875 L 8.453125 -17.71875 C 8.234375 -16.664062 7.992188 -15.476562 7.734375 -14.15625 C 7.484375 -12.832031 7.238281 -11.46875 7 -10.0625 C 6.757812 -8.664062 6.554688 -7.316406 6.390625 -6.015625 C 6.234375 -4.722656 6.15625 -3.59375 6.15625 -2.625 C 6.15625 -1.976562 6.191406 -1.425781 6.265625 -0.96875 C 6.296875 -0.863281 6.3125 -0.769531 6.3125 -0.6875 C 6.3125 -0.601562 6.3125 -0.519531 6.3125 -0.4375 C 6.3125 -0.0078125 6.175781 0.28125 5.90625 0.4375 C 5.632812 0.601562 5.3125 0.6875 4.9375 0.6875 Z M 4.9375 0.6875 "/></g></g></g></g></g></g></svg>